<?xml version="1.0" encoding="iso-8859-1"?>
<!-- Generator: Adobe Illustrator 19.0.0, SVG Export Plug-In . SVG Version: 6.00 Build 0)  -->
<svg version="1.1" id="Layer_1" xmlns="http://www.w3.org/2000/svg" xmlns:xlink="http://www.w3.org/1999/xlink" x="0px" y="0px"
     viewBox="0 0 512.002 512.002" style="enable-background:new 0 0 512.002 512.002;" xml:space="preserve">
<g>
	<g>
		<path d="M110.936,0C49.769,0,0.002,49.766,0.002,110.933s49.766,110.933,110.933,110.933S221.869,172.1,221.869,110.933
			S172.103,0,110.936,0z"/>
	</g>
</g>
    <g>
	<g>
		<path d="M468.534,149.982c-1.408-2.995-4.42-4.915-7.731-4.915h-34.133v-51.2c0-2.261-0.896-4.437-2.5-6.033L390.036,53.7
			c-1.596-1.604-3.763-2.5-6.033-2.5h-128c-4.719,0-8.533,3.823-8.533,8.533s3.814,8.533,8.533,8.533H380.47l29.133,29.133v47.667
			h-34.133c-3.311,0-6.323,1.92-7.723,4.915c-1.408,3.004-0.947,6.545,1.169,9.079l42.667,51.2c1.621,1.946,4.019,3.072,6.554,3.072
			s4.932-1.126,6.562-3.072l42.667-51.2C469.481,156.518,469.942,152.977,468.534,149.982z"/>
	</g>
</g>
    <g>
	<g>
		<g>
			<path d="M307.203,452.267C305.777,452.267,307.433,452.71,307.203,452.267L307.203,452.267z"/>
            <path d="M418.136,341.333c0-16.623-3.584-32.606-10.658-47.522c-0.521-1.084-1.502-3.43-1.852-3.447
				c-18.5-35.576-55.637-59.964-98.423-59.964c-61.167,0-110.933,49.766-110.933,110.933c0,59.614,51.917,108.484,110.933,110.933
				C368.369,452.267,418.136,402.5,418.136,341.333z"/>
		</g>
	</g>
</g>
    <g>
	<g>
		<path d="M433.82,295.279c-3.422-1.058-6.502,2.133-5.359,5.53c4.412,12.996,6.741,26.547,6.741,40.525
			c0,65.63-49.69,119.731-113.408,127.002c-3.575,0.41-5.163,4.565-2.748,7.228c25.941,28.518,65.937,42.786,106.342,33.732
			c48.503-10.863,84.642-54.272,86.528-103.945C513.88,353.741,480.327,309.658,433.82,295.279z"/>
	</g>
</g>

</svg>
