<?xml version="1.0" encoding="iso-8859-1"?>
<!-- Generator: Adobe Illustrator 18.0.0, SVG Export Plug-In . SVG Version: 6.00 Build 0)  -->
<!DOCTYPE svg PUBLIC "-//W3C//DTD SVG 1.1//EN" "http://www.w3.org/Graphics/SVG/1.1/DTD/svg11.dtd">
<svg version="1.1" id="Capa_1" xmlns="http://www.w3.org/2000/svg" x="0px" y="0px"
     viewBox="0 0 58 58" style="enable-background:new 0 0 58 58;" xml:space="preserve">
<g>
	<path d="M43.585,36.542c-0.27-0.032-0.543-0.053-0.821-0.053c-0.491,0-0.969,0.053-1.431,0.151
		c-4.595,0.594-8.827,3.552-12.062,8.492l-0.466,0.711l0.359,0.548C32.798,51.942,37.693,55,42.947,55
		c5.253,0,10.148-3.058,13.783-8.609l0.466-0.711l-0.359-0.548C53.325,39.768,48.636,36.741,43.585,36.542z M47.673,43.397
		c0,2.707-2.202,4.909-4.909,4.909s-4.909-2.202-4.909-4.909c0-2.343,1.652-4.302,3.852-4.788c0.446-0.053,0.895-0.087,1.348-0.087
		c0.025,0,0.05,0.002,0.075,0.003C45.663,38.716,47.673,40.815,47.673,43.397z M42.947,53c-4.387,0-8.538-2.537-11.744-7.161
		c1.559-2.286,3.348-4.069,5.28-5.304c-0.4,0.874-0.629,1.841-0.629,2.863c0,3.81,3.1,6.909,6.909,6.909s6.909-3.1,6.909-6.909
		c0-1.216-0.318-2.357-0.872-3.351c2.204,1.207,4.242,3.107,5.996,5.637C51.577,50.406,47.383,53,42.947,53z"/>
    <path d="M57,3H1C0.448,3,0,3.447,0,4v44c0,0.553,0.448,1,1,1h26.32c-0.225-0.316-0.449-0.635-0.666-0.966l-1.436-2.192l1.543-2.354
		c2.207-3.371,4.851-5.938,7.773-7.626c-0.091-0.047-0.182-0.095-0.259-0.172L23.974,25.389L7.661,39.751
		C7.471,39.918,7.235,40,7,40c-0.277,0-0.553-0.114-0.751-0.339c-0.365-0.415-0.325-1.047,0.09-1.412l17.017-14.982
		c0.396-0.348,0.994-0.329,1.368,0.044l4.743,4.743l9.794-10.727c0.179-0.196,0.429-0.313,0.694-0.325
		c0.264-0.006,0.524,0.083,0.72,0.262l12,11c0.407,0.373,0.435,1.006,0.062,1.413c-0.373,0.406-1.006,0.435-1.413,0.062
		L40.063,19.414l-9.181,10.054l4.807,4.807c0.231,0.231,0.308,0.543,0.266,0.843c2.245-1.046,4.631-1.596,7.097-1.596
		c5.653,0,10.89,2.859,14.946,8.09V4C58,3.447,57.552,3,57,3z M16,22.138c-3.071,0-5.569-2.498-5.569-5.568
		C10.431,13.498,12.929,11,16,11s5.569,2.498,5.569,5.569C21.569,19.64,19.071,22.138,16,22.138z"/>
</g>
</svg>
